<svg width="40" height="40" viewBox="0 0 40 40" fill="none" xmlns="http://www.w3.org/2000/svg">
<circle cx="20" cy="20" r="20" fill="#C5C6C9"/>
<path d="M27 29V27C27 25.9391 26.5786 24.9217 25.8284 24.1716C25.0783 23.4214 24.0609 23 23 23H17C15.9391 23 14.9217 23.4214 14.1716 24.1716C13.4214 24.9217 13 25.9391 13 27V29" stroke="#295782" stroke-width="2" stroke-linecap="round" stroke-linejoin="round"/>
<path d="M20 19C22.2091 19 24 17.2091 24 15C24 12.7909 22.2091 11 20 11C17.7909 11 16 12.7909 16 15C16 17.2091 17.7909 19 20 19Z" stroke="#295782" stroke-width="2" stroke-linecap="round" stroke-linejoin="round"/>
</svg>
