<svg width="25" height="24" viewBox="0 0 25 24" fill="none" xmlns="http://www.w3.org/2000/svg">
<path d="M13.8047 12H12.75H11.6953C8.55942 14.8969 5.71875 17.6859 5.71875 20.4844C5.71875 21.5058 6.13964 22.4803 6.87642 23.2969H12.75H18.6236C19.3604 22.4803 19.7812 21.5058 19.7812 20.4844C19.7812 17.6859 16.9406 14.8969 13.8047 12Z" fill="#F7F0EB"/>
<path d="M19.7812 20.4844C19.7812 17.6859 16.9406 14.8969 13.8047 12H12.75V23.2969H18.6236C19.3604 22.4803 19.7812 21.5058 19.7812 20.4844Z" fill="#E1D3CE"/>
<path d="M12.75 16.9219C12.3614 16.9219 12.0469 17.2364 12.0469 17.625V19.0312C12.0469 19.4199 12.3614 19.7344 12.75 19.7344C13.1386 19.7344 13.4531 19.4199 13.4531 19.0312V17.625C13.4531 17.2364 13.1386 16.9219 12.75 16.9219Z" fill="#FABE2C"/>
<path d="M13.4531 19.0312V17.625C13.4531 17.2364 13.1386 16.9219 12.75 16.9219V19.7344C13.1386 19.7344 13.4531 19.4199 13.4531 19.0312Z" fill="#FF9100"/>
<path d="M12.7503 18.3281C11.0797 18.3281 7.57853 20.413 7.18164 23.2014H12.7503H18.319C17.9222 20.413 14.421 18.3281 12.7503 18.3281Z" fill="#FABE2C"/>
<path d="M12.75 18.3281V23.2014H18.3187C17.9218 20.413 14.4206 18.3281 12.75 18.3281Z" fill="#FF9100"/>
<path d="M18.6281 0.703125H12.75H6.87188C6.14063 1.5187 5.71875 2.48902 5.71875 3.51562C5.71875 3.9375 5.78906 4.37344 5.91562 4.79527L8.21794 6.26067L12.75 6.31575L17.5809 6.37444L19.5422 4.96397C19.6969 4.48594 19.7812 3.9937 19.7812 3.51562C19.7812 2.48902 19.3594 1.5187 18.6281 0.703125Z" fill="#F7F0EB"/>
<path d="M19.5422 4.96402C19.6969 4.48594 19.7812 3.9937 19.7812 3.51562C19.7812 2.48902 19.3594 1.5187 18.6281 0.703125H12.75V6.31575L17.5809 6.37444L19.5422 4.96402Z" fill="#E1D3CE"/>
<path d="M20.4844 0H12.75H5.01562C4.62698 0 4.3125 0.314484 4.3125 0.703125C4.3125 1.09177 4.62698 1.40625 5.01562 1.40625H12.75H20.4844C20.873 1.40625 21.1875 1.09177 21.1875 0.703125C21.1875 0.314484 20.873 0 20.4844 0Z" fill="#8C4A37"/>
<path d="M21.1875 0.703125C21.1875 0.314484 20.873 0 20.4844 0H12.75V1.40625H20.4844C20.873 1.40625 21.1875 1.09177 21.1875 0.703125Z" fill="#663325"/>
<path d="M12.75 11.2969C12.3614 11.2969 12.0469 11.6114 12.0469 12V14.8125C12.0469 15.2011 12.3614 15.5156 12.75 15.5156C13.1386 15.5156 13.4531 15.2011 13.4531 14.8125V12C13.4531 11.6114 13.1386 11.2969 12.75 11.2969Z" fill="#FABE2C"/>
<path d="M13.4531 14.8125V12C13.4531 11.6114 13.1386 11.2969 12.75 11.2969V15.5156C13.1386 15.5156 13.4531 15.2011 13.4531 14.8125Z" fill="#FF9100"/>
<path d="M16.266 5.625C14.5082 5.625 13.0458 4.99219 13.0316 4.97808C13.016 4.9718 12.9106 4.92727 12.7504 4.86708C12.191 4.65708 10.8415 4.21875 9.23477 4.21875C7.80034 4.21875 6.56284 4.57031 5.91602 4.79527C6.02847 5.2312 6.21128 5.66714 6.45039 6.10308C7.49102 8.02964 9.51602 10.0031 11.6957 12C11.766 12.0562 12.0332 12.2953 12.2722 12.5203C12.4058 12.6468 12.578 12.7102 12.7503 12.7102C12.9226 12.7102 13.095 12.6468 13.2285 12.5203C13.4675 12.2953 13.7348 12.0562 13.805 12C15.7457 10.214 17.5597 8.4375 18.6707 6.72183C19.0644 6.13125 19.3598 5.55469 19.5426 4.96402C19.4019 4.96402 18.2092 5.625 16.266 5.625Z" fill="#FABE2C"/>
<path d="M13.8047 12.0001C15.7453 10.2141 17.5593 8.43761 18.6704 6.72194C19.0641 6.13136 19.3594 5.55479 19.5422 4.96412C19.4015 4.96412 18.2088 5.62511 16.2656 5.62511C14.5078 5.62511 13.0454 4.99229 13.0313 4.97819C13.0156 4.9719 12.9102 4.92737 12.75 4.86719V12.7102C12.9223 12.7102 13.0946 12.6469 13.2282 12.5204C13.4672 12.2954 13.7344 12.0563 13.8047 12.0001Z" fill="#FF9100"/>
<path d="M20.4844 22.5938H12.75H5.01562C4.62698 22.5938 4.3125 22.9082 4.3125 23.2969C4.3125 23.6855 4.62698 24 5.01562 24H12.75H20.4844C20.873 24 21.1875 23.6855 21.1875 23.2969C21.1875 22.9082 20.873 22.5938 20.4844 22.5938Z" fill="#8C4A37"/>
<path d="M21.1875 23.2969C21.1875 22.9082 20.873 22.5938 20.4844 22.5938H12.75V24H20.4844C20.873 24 21.1875 23.6855 21.1875 23.2969Z" fill="#663325"/>
</svg>
