<svg width="25" height="24" viewBox="0 0 25 24" fill="none" xmlns="http://www.w3.org/2000/svg">
<path d="M12.7495 24.0004C17.7112 24.0004 21.7334 23.1355 21.7334 22.0686C21.7334 21.0017 17.7112 20.1367 12.7495 20.1367C7.78787 20.1367 3.76562 21.0017 3.76562 22.0686C3.76562 23.1355 7.78787 24.0004 12.7495 24.0004Z" fill="url(#paint0_linear_353_9163)"/>
<path d="M22.5957 9.84668C22.5957 4.40852 18.1873 0 12.7491 0C7.33461 0 2.95716 4.33144 2.90285 9.74569C2.86186 13.8349 5.31396 17.3557 8.83207 18.8827C9.42078 19.1383 9.92436 19.5565 10.2852 20.0873L12.0469 22.6792C12.3838 23.1747 13.1142 23.1747 13.4511 22.6792L15.2129 20.0873C15.5725 19.5582 16.0735 19.1395 16.6605 18.8851C20.1526 17.3719 22.5957 13.8949 22.5957 9.84668Z" fill="url(#paint1_linear_353_9163)"/>
<path d="M12.7505 22.5597C12.6935 22.5597 12.5504 22.5444 12.4542 22.4029L10.6925 19.811C10.2782 19.2015 9.70292 18.7247 9.02894 18.4322C5.56861 16.9302 3.35717 13.5223 3.39501 9.75014C3.41995 7.26186 4.40282 4.9324 6.16254 3.1908C7.92207 1.44939 10.262 0.490234 12.7505 0.490234C17.9094 0.490234 22.1066 4.68736 22.1066 9.84628C22.1066 13.5788 19.8929 16.9499 16.467 18.4345C15.7968 18.7249 15.2234 19.2009 14.8086 19.8111L13.0469 22.4029C12.9506 22.5444 12.8076 22.5597 12.7505 22.5597Z" fill="url(#paint2_linear_353_9163)"/>
<path d="M12.7505 14.8604C15.5198 14.8604 17.7648 12.6155 17.7648 9.84624C17.7648 7.07697 15.5198 4.83203 12.7505 4.83203C9.98127 4.83203 7.73633 7.07697 7.73633 9.84624C7.73633 12.6155 9.98127 14.8604 12.7505 14.8604Z" fill="url(#paint3_linear_353_9163)"/>
<defs>
<linearGradient id="paint0_linear_353_9163" x1="12.5517" y1="21.2349" x2="13.6677" y2="25.9381" gradientUnits="userSpaceOnUse">
<stop stop-color="#FFDA45"/>
<stop offset="1" stop-color="#FFA425"/>
</linearGradient>
<linearGradient id="paint1_linear_353_9163" x1="6.80614" y1="3.90344" x2="26.4532" y2="23.5504" gradientUnits="userSpaceOnUse">
<stop stop-color="#FF7044"/>
<stop offset="1" stop-color="#F92814"/>
</linearGradient>
<linearGradient id="paint2_linear_353_9163" x1="10.6389" y1="7.74011" x2="3.73473" y2="0.835927" gradientUnits="userSpaceOnUse">
<stop stop-color="#FF7044" stop-opacity="0"/>
<stop offset="1" stop-color="#FFA425"/>
</linearGradient>
<linearGradient id="paint3_linear_353_9163" x1="11.5231" y1="7.97434" x2="14.4861" y2="12.4929" gradientUnits="userSpaceOnUse">
<stop stop-color="#F9F7FC"/>
<stop offset="1" stop-color="#F0DDFC"/>
</linearGradient>
</defs>
</svg>
