<svg width="25" height="24" viewBox="0 0 25 24" fill="none" xmlns="http://www.w3.org/2000/svg">
<path d="M24.25 4.80078V22.0008C24.25 22.5312 24.0393 23.0399 23.6642 23.415C23.2891 23.7901 22.7804 24.0008 22.25 24.0008H2.25C1.71957 24.0008 1.21086 23.7901 0.83579 23.415C0.46071 23.0399 0.25 22.5312 0.25 22.0008V4.80078H24.25Z" fill="#EBF5FF"/>
<path d="M0.25 4.8V2C0.25 1.46957 0.46071 0.96086 0.83579 0.58579C1.21086 0.21071 1.71957 0 2.25 0H22.25C22.7804 0 23.2891 0.21071 23.6642 0.58579C24.0393 0.96086 24.25 1.46957 24.25 2V4.8H0.25Z" fill="#0071F9"/>
<path d="M6.6525 18.4008C9.3035 18.4008 11.4525 16.2518 11.4525 13.6008C11.4525 10.9498 9.3035 8.80078 6.6525 8.80078C4.00157 8.80078 1.85254 10.9498 1.85254 13.6008C1.85254 16.2518 4.00157 18.4008 6.6525 18.4008Z" fill="#008B2A"/>
<path d="M6.6525 8.80078C5.75138 8.79988 4.86821 9.05288 4.10428 9.53088C3.34034 10.0089 2.72655 10.6925 2.33328 11.5033C1.94 12.3141 1.78316 13.2193 1.88073 14.1152C1.9783 15.011 2.32633 15.8613 2.88493 16.5684C3.80694 17.2967 4.96427 17.6611 6.1372 17.5925C7.3102 17.5239 8.4171 17.0271 9.248 16.1962C10.0788 15.3654 10.5757 14.2585 10.6443 13.0855C10.7129 11.9125 10.3484 10.7552 9.6201 9.83318C8.7758 9.16388 7.7299 8.80008 6.6525 8.80078Z" fill="#00B135"/>
<path d="M3.4502 13.9992L5.85019 16.3992L9.85019 12.3992L8.6502 11.1992L5.85019 13.9992L4.6502 12.7992L3.4502 13.9992Z" fill="#F2F2F2"/>
<path d="M17.8508 18.4008C20.5017 18.4008 22.6508 16.2518 22.6508 13.6008C22.6508 10.9498 20.5017 8.80078 17.8508 8.80078C15.1998 8.80078 13.0508 10.9498 13.0508 13.6008C13.0508 16.2518 15.1998 18.4008 17.8508 18.4008Z" fill="#B2001A"/>
<path d="M21.8485 13.1998C21.8484 12.3838 21.6399 11.5814 21.2428 10.8685C20.8457 10.1557 20.2731 9.55606 19.5793 9.12656C18.4649 8.69336 17.2289 8.69216 16.1136 9.12316C14.9984 9.55406 14.0843 10.3862 13.5508 11.4562C13.0173 12.5262 12.9027 13.7569 13.2296 14.907C13.5564 16.0571 14.3012 17.0435 15.3177 17.673C16.0446 17.9561 16.8296 18.0575 17.6046 17.9683C18.3796 17.8792 19.121 17.6022 19.7646 17.1613C20.4082 16.7205 20.9345 16.1292 21.2976 15.4388C21.6608 14.7485 21.8499 13.9798 21.8485 13.1998Z" fill="#E20D2C"/>
<path d="M20.6498 12.0008L19.4498 10.8008L17.8498 12.4008L16.2498 10.8008L15.0498 12.0008L16.6498 13.6008L15.0498 15.2008L16.2498 16.4008L17.8498 14.8008L19.4498 16.4008L20.6498 15.2008L19.0498 13.6008L20.6498 12.0008Z" fill="#F2F2F2"/>
</svg>
