<svg width="33" height="32" viewBox="0 0 33 32" fill="none" xmlns="http://www.w3.org/2000/svg">
<g clip-path="url(#clip0_353_9216)">
<path d="M21.4947 20.7109V29.3331C21.4947 30.0443 20.6947 30.3998 20.1614 29.9554L17.1392 27.4665C17.1392 27.4665 17.0503 27.4665 17.0503 27.3776C16.7836 27.1998 16.517 27.1109 16.2503 27.1109C15.8947 27.1109 15.6281 27.1998 15.3614 27.4665L12.3392 30.0443C11.8059 30.4887 11.0059 30.1331 11.0059 29.422V20.7998H21.4947V20.7109Z" fill="#F45170"/>
<path d="M21.4944 20.7109V29.3331C21.4944 30.0443 20.6944 30.3998 20.1611 29.9554L17.1389 27.4665C17.1389 27.4665 17.05 27.4665 17.05 27.3776C16.7833 27.1998 16.5167 27.1109 16.25 27.1109V20.7109H21.4944Z" fill="#E93565"/>
<path d="M21.4947 22.7559V24.0892C20.6947 24.267 19.717 24.0003 19.0059 24.1781C18.117 24.4447 17.2281 25.4225 16.2503 25.4225C15.2725 25.4225 14.3836 24.4447 13.4947 24.1781C12.6947 24.0003 11.717 24.267 11.0059 24.0892V22.7559H21.4947Z" fill="#CC104A"/>
<path d="M26.4721 16.0006C26.2055 16.9784 26.6499 18.1339 26.2055 19.0228C25.6721 19.9117 24.4277 20.0895 23.7166 20.8006C23.0055 21.5117 22.8277 22.7562 21.9388 23.2895C21.1388 23.7339 19.8944 23.2895 18.9166 23.5562C18.0277 23.8228 17.1388 24.8006 16.161 24.8006C15.1832 24.8006 14.2944 23.8228 13.4055 23.5562C12.4277 23.2895 11.2721 23.7339 10.3832 23.2895C9.58325 22.8451 9.31658 21.5117 8.60547 20.8006C7.89436 20.0895 6.64991 19.9117 6.11658 19.0228C5.67213 18.2228 6.11658 16.9784 5.84991 16.0006C5.58325 15.1117 4.60547 14.2228 4.60547 13.2451C4.60547 12.2673 5.58325 11.3784 5.84991 10.4895C6.11658 9.51168 5.67213 8.35612 6.11658 7.46723C6.56102 6.66723 7.89436 6.40056 8.60547 5.68945C9.31658 4.97834 9.49436 3.7339 10.3832 3.20056C11.1832 2.75612 12.4277 3.20056 13.4055 2.9339C14.2944 2.66723 15.1832 1.68945 16.161 1.68945C17.1388 1.68945 18.0277 2.66723 18.9166 2.9339C19.8944 3.20056 21.0499 2.75612 21.9388 3.20056C22.7388 3.64501 23.0055 4.97834 23.7166 5.68945C24.4277 6.40056 25.6721 6.57834 26.2055 7.46723C26.6499 8.26723 26.2055 9.51168 26.4721 10.4895C26.7388 11.3784 27.7166 12.2673 27.7166 13.2451C27.7166 14.2228 26.7388 15.1117 26.4721 16.0006Z" fill="#F9BE48"/>
<g opacity="0.4">
<path d="M24.8714 13.2453C24.8714 17.9564 21.0492 21.8675 16.2492 21.8675C11.5381 21.8675 7.62695 18.0453 7.62695 13.2453C7.62695 8.53416 11.4492 4.62305 16.2492 4.62305C20.9603 4.62305 24.8714 8.53416 24.8714 13.2453Z" fill="white"/>
</g>
<path d="M23.9842 13.2451C23.9842 17.5117 20.5176 20.9784 16.2509 20.9784C11.9842 20.9784 8.51758 17.5117 8.51758 13.2451C8.51758 8.97839 11.9842 5.51172 16.2509 5.51172C20.5176 5.51172 23.9842 8.97839 23.9842 13.2451Z" fill="#F3A250"/>
<path d="M23.984 13.778C23.7174 9.6891 20.3396 6.4891 16.2507 6.4891C12.1618 6.4891 8.78404 9.6891 8.51737 13.778C8.2507 9.15577 11.984 5.42244 16.2507 5.51132C20.6063 5.60021 24.2507 9.06688 23.984 13.778Z" fill="#EF7B56"/>
<path d="M18.7388 14.4001L19.1833 17.1556C19.2722 17.6001 18.8277 17.8667 18.4722 17.6889L16.0722 16.4445C15.8944 16.3556 15.7166 16.3556 15.6277 16.4445L13.2277 17.6889C12.8722 17.8667 12.4277 17.6001 12.5166 17.1556L12.9611 14.4001C12.9611 14.2223 12.9611 14.0445 12.7833 13.9556L10.8277 12.0001C10.5611 11.7334 10.65 11.2001 11.0944 11.1112L13.85 10.6667C14.0277 10.6667 14.1166 10.5778 14.2055 10.4001L15.3611 8.08893C15.5388 7.73338 16.0722 7.73338 16.25 8.08893L17.4944 10.5778C17.5833 10.7556 17.6722 10.8445 17.85 10.8445L20.6055 11.2889C21.05 11.3778 21.2277 11.8223 20.8722 12.1778L18.9166 13.9556C18.8277 14.1334 18.7388 14.2223 18.7388 14.4001Z" fill="#EF7B56"/>
<path d="M19.1832 14.8454L19.6276 17.601C19.7165 18.0454 19.2721 18.3121 18.9165 18.1343L16.5165 16.8899C16.3388 16.801 16.161 16.801 16.0721 16.8899L13.5832 18.1343C13.2276 18.3121 12.7832 18.0454 12.8721 17.601L13.3165 14.8454C13.3165 14.6677 13.3165 14.4899 13.1388 14.401L11.1832 12.4454C10.9165 12.1788 11.0054 11.6454 11.4499 11.5565L14.2054 11.1121C14.3832 11.1121 14.4721 11.0232 14.561 10.8454L15.8054 8.35651C15.9832 8.00096 16.5165 8.00096 16.6943 8.35651L17.9388 10.8454C18.0276 11.0232 18.1165 11.1121 18.2943 11.1121L21.0499 11.5565C21.4943 11.6454 21.6721 12.0899 21.3165 12.4454L19.361 14.401C19.1832 14.4899 19.1832 14.6677 19.1832 14.8454Z" fill="#F9CF6B"/>
<g opacity="0.5">
<path d="M11.7182 12.5341C11.4516 12.2675 11.6294 11.823 11.9849 11.7341L14.3849 11.3786C14.5627 11.3786 14.6516 11.2897 14.7405 11.1119L15.8071 8.88972C15.9849 8.53416 16.4293 8.53416 16.6071 8.88972L17.6738 11.1119C17.7627 11.2897 17.8516 11.3786 18.0294 11.3786L20.4294 11.7341C20.7849 11.823 20.9627 12.2675 20.696 12.5341C20.696 12.5341 19.1849 14.223 16.0738 14.223C13.7627 14.223 11.7182 12.5341 11.7182 12.5341Z" fill="white"/>
</g>
<g opacity="0.7">
<path d="M15.5391 11.2887C15.0947 11.1109 15.8058 9.2443 16.2503 9.42208C16.5169 9.51097 16.0725 11.4665 15.5391 11.2887Z" fill="white"/>
</g>
<path d="M12.3396 7.5555C12.0729 7.5555 11.8952 7.73328 11.7174 7.91106C11.8063 7.99994 12.6952 8.71106 12.6063 8.79994C12.5174 8.88883 11.6285 8.26661 11.5396 8.17772C11.4507 8.3555 11.3618 8.62217 11.4507 8.79994C11.7174 11.0222 11.3618 11.1111 10.9174 8.88883C10.8285 8.62217 10.7396 8.44439 10.5618 8.26661C10.473 8.3555 9.76184 9.24439 9.67295 9.1555C9.58406 9.06661 10.2063 8.17772 10.2952 8.08883C10.1174 7.99995 9.85073 7.99995 9.67295 7.99995C7.36184 8.17772 7.27295 7.91106 9.58406 7.46661C9.85073 7.37772 10.0285 7.28883 10.2063 7.11106C10.2063 7.11106 10.2063 7.11106 10.1174 7.02217C8.87295 6.04439 9.05073 5.9555 10.2952 6.7555H10.3841C10.4729 6.57772 10.5618 6.31106 10.4729 6.13328C10.2063 3.82217 10.5618 3.82217 11.0063 6.04439C11.0063 6.31106 11.1841 6.48883 11.3618 6.66661C11.3618 6.66661 11.3618 6.66661 11.4507 6.57772C12.4285 5.33328 12.5174 5.51106 11.7174 6.7555V6.84439C11.8063 7.02217 12.0729 7.11106 12.2507 7.11106C14.5618 6.84439 14.5618 7.11106 12.3396 7.5555Z" fill="white"/>
<g opacity="0.5">
<path d="M12.338 26.7563C12.338 28.0007 12.2491 28.0896 12.0714 28.0896C11.9825 28.0896 11.8047 28.0007 11.8047 26.7563C11.8047 25.5118 11.8936 25.1562 12.0714 25.1562C12.2491 25.1562 12.338 25.5118 12.338 26.7563Z" fill="white"/>
</g>
</g>
<defs>
<clipPath id="clip0_353_9216">
<rect width="33" height="32" fill="white"/>
</clipPath>
</defs>
</svg>
