<svg width="31" height="25" viewBox="0 0 31 25" fill="none" xmlns="http://www.w3.org/2000/svg">
<mask id="path-1-inside-1_988_2356" fill="white">
<path d="M19.572 10.7142L14.2228 7.63419C13.9088 7.45338 13.5527 7.35833 13.1903 7.3586C12.8279 7.35887 12.4719 7.45443 12.1581 7.63571C11.8443 7.81699 11.5837 8.0776 11.4024 8.39141C11.2211 8.70521 11.1256 9.06117 11.1253 9.42357V15.5807C11.1209 16.3186 11.5147 17.0011 12.1549 17.3657C12.4688 17.549 12.8257 17.6459 13.1892 17.6464C13.5527 17.6469 13.9099 17.551 14.2243 17.3686L19.572 14.2886C19.8861 14.108 20.1471 13.8477 20.3286 13.5341C20.5101 13.2204 20.6056 12.8645 20.6056 12.5021C20.6056 12.1397 20.5101 11.7838 20.3286 11.4701C20.1471 11.1565 19.8861 10.8963 19.572 10.7157M18.8428 13.0227L13.4966 16.1042C13.4041 16.1591 13.2986 16.1881 13.1911 16.1881C13.0835 16.1881 12.978 16.1591 12.8855 16.1042C12.7928 16.0514 12.7159 15.9747 12.6628 15.8821C12.6098 15.7895 12.5824 15.6844 12.5837 15.5777V9.42357C12.5829 9.31736 12.6105 9.21287 12.6636 9.12085C12.7166 9.02884 12.7932 8.95261 12.8855 8.90003C12.9773 8.84382 13.0827 8.81407 13.1903 8.81407C13.2979 8.81407 13.4034 8.84382 13.4951 8.90003L18.8428 11.9815C18.9351 12.0336 19.0118 12.1092 19.0652 12.2007C19.1186 12.2922 19.1467 12.3962 19.1467 12.5021C19.1467 12.608 19.1186 12.712 19.0652 12.8035C19.0118 12.895 18.9351 12.9706 18.8428 13.0227ZM25.7087 0.833984H5.29199C4.13203 0.835143 3.0199 1.29645 2.19968 2.11667C1.37946 2.93689 0.91815 4.04902 0.916992 5.20898V19.7923C0.91815 20.9523 1.37946 22.0644 2.19968 22.8846C3.0199 23.7049 4.13203 24.1662 5.29199 24.1673H25.7087C26.8686 24.1662 27.9807 23.7049 28.801 22.8846C29.6212 22.0644 30.0825 20.9523 30.0837 19.7923V5.20898C30.0825 4.04902 29.6212 2.93689 28.801 2.11667C27.9807 1.29645 26.8686 0.835143 25.7087 0.833984ZM28.6253 19.7923C28.6242 20.5655 28.3165 21.3067 27.7698 21.8534C27.223 22.4002 26.4818 22.7078 25.7087 22.709H5.29199C4.5188 22.7078 3.77761 22.4002 3.23088 21.8534C2.68414 21.3067 2.37648 20.5655 2.37533 19.7923V5.20898C2.37648 4.43579 2.68414 3.6946 3.23088 3.14787C3.77761 2.60114 4.5188 2.29347 5.29199 2.29232H25.7087C26.4818 2.29347 27.223 2.60114 27.7698 3.14787C28.3165 3.6946 28.6242 4.43579 28.6253 5.20898V19.7923Z"/>
</mask>
<path d="M14.2228 7.63419L15.2208 5.90097L15.2207 5.90092L14.2228 7.63419ZM11.1253 9.42357L9.12533 9.42212V9.42357H11.1253ZM11.1253 15.5807L13.1253 15.5925V15.5807H11.1253ZM12.1549 17.3657L13.1637 15.6387L13.1542 15.6332L13.1446 15.6277L12.1549 17.3657ZM14.2243 17.3686L13.2261 15.6355L13.2203 15.6388L14.2243 17.3686ZM19.572 14.2886L18.5752 12.5547L18.5738 12.5555L19.572 14.2886ZM18.8428 13.0227L17.8593 11.2813L17.8517 11.2856L17.8441 11.29L18.8428 13.0227ZM13.4966 16.1042L12.4978 14.3714L12.4862 14.3781L12.4746 14.385L13.4966 16.1042ZM12.8855 16.1042L13.9075 14.385L13.8916 14.3756L13.8756 14.3665L12.8855 16.1042ZM12.5837 15.5777L14.5835 15.601L14.5837 15.5894V15.5777H12.5837ZM12.5837 9.42357H14.5837L14.5836 9.41002L12.5837 9.42357ZM12.8855 8.90003L13.8757 10.6377L13.9034 10.6219L13.9305 10.6053L12.8855 8.90003ZM13.1903 8.81407V6.81407V8.81407ZM13.4951 8.90003L12.4501 10.6053L12.4732 10.6194L12.4966 10.6329L13.4951 8.90003ZM18.8428 11.9815L17.8443 13.7144L17.8518 13.7187L17.8593 13.7229L18.8428 11.9815ZM25.7087 0.833984L25.7107 -1.16602H25.7087V0.833984ZM5.29199 0.833984L5.29199 -1.16602L5.28999 -1.16601L5.29199 0.833984ZM0.916992 5.20898L-1.08301 5.20699V5.20898H0.916992ZM0.916992 19.7923H-1.08301L-1.08301 19.7943L0.916992 19.7923ZM5.29199 24.1673L5.28999 26.1673H5.29199V24.1673ZM25.7087 24.1673V26.1673L25.7107 26.1673L25.7087 24.1673ZM30.0837 19.7923L32.0837 19.7943V19.7923H30.0837ZM30.0837 5.20898H32.0837L32.0837 5.20699L30.0837 5.20898ZM28.6253 19.7923L30.6253 19.7953V19.7923H28.6253ZM25.7087 22.709V24.709L25.7117 24.709L25.7087 22.709ZM5.29199 22.709L5.289 24.709H5.29199V22.709ZM2.37533 19.7923H0.375323L0.375328 19.7953L2.37533 19.7923ZM2.37533 5.20898L0.375325 5.20599V5.20898H2.37533ZM5.29199 2.29232L5.29199 0.292315L5.289 0.29232L5.29199 2.29232ZM25.7087 2.29232L25.7117 0.292318H25.7087V2.29232ZM28.6253 5.20898H30.6253L30.6253 5.20599L28.6253 5.20898ZM20.57 8.98097L15.2208 5.90097L13.2249 9.36741L18.574 12.4474L20.57 8.98097ZM15.2207 5.90092C14.6027 5.54511 13.9019 5.35808 13.1888 5.3586L13.1917 9.3586C13.2034 9.35859 13.2148 9.36165 13.2249 9.36746L15.2207 5.90092ZM13.1888 5.3586C12.4756 5.35913 11.7752 5.54718 11.1577 5.90391L13.1585 9.36751C13.1686 9.36168 13.1801 9.35861 13.1917 9.3586L13.1888 5.3586ZM11.1577 5.90391C10.5402 6.26064 10.0273 6.77348 9.67061 7.391L13.1342 9.39182C13.1401 9.38172 13.1484 9.37334 13.1585 9.36751L11.1577 5.90391ZM9.67061 7.391C9.31389 8.00851 9.12584 8.70898 9.12533 9.42212L13.1253 9.42501C13.1253 9.41336 13.1284 9.40191 13.1342 9.39182L9.67061 7.391ZM9.12533 9.42357V15.5807H13.1253V9.42357H9.12533ZM9.12536 15.5688C9.11671 17.0285 9.89567 18.3806 11.1652 19.1036L13.1446 15.6277C13.1337 15.6215 13.1252 15.6086 13.1253 15.5925L9.12536 15.5688ZM11.1461 19.0926C11.7653 19.4543 12.4693 19.6454 13.1864 19.6464L13.192 15.6464C13.1821 15.6464 13.1723 15.6437 13.1637 15.6387L11.1461 19.0926ZM13.1864 19.6464C13.9035 19.6474 14.608 19.4583 15.2282 19.0983L13.2203 15.6388C13.2117 15.6438 13.202 15.6464 13.192 15.6464L13.1864 19.6464ZM15.2225 19.1017L20.5702 16.0217L18.5738 12.5555L13.2261 15.6355L15.2225 19.1017ZM20.5688 16.0225C21.1878 15.6666 21.7021 15.1537 22.0597 14.5357L18.5975 12.5325C18.5921 12.5417 18.5844 12.5494 18.5752 12.5547L20.5688 16.0225ZM22.0597 14.5357C22.4173 13.9176 22.6056 13.2162 22.6056 12.5021H18.6056C18.6056 12.5128 18.6028 12.5232 18.5975 12.5325L22.0597 14.5357ZM22.6056 12.5021C22.6056 11.788 22.4173 11.0866 22.0597 10.4685L18.5975 12.4717C18.6028 12.481 18.6056 12.4914 18.6056 12.5021H22.6056ZM22.0597 10.4685C21.7021 9.85048 21.1878 9.33764 20.5688 8.98175L18.5752 12.4496C18.5844 12.4549 18.5921 12.4625 18.5975 12.4717L22.0597 10.4685ZM17.8441 11.29L12.4978 14.3714L14.4953 17.837L19.8416 14.7555L17.8441 11.29ZM12.4746 14.385C12.6914 14.2562 12.9389 14.1881 13.1911 14.1881V18.1881C13.6583 18.1881 14.1169 18.0621 14.5185 17.8234L12.4746 14.385ZM13.1911 14.1881C13.4432 14.1881 13.6907 14.2562 13.9075 14.385L11.8636 17.8234C12.2652 18.0621 12.7238 18.1881 13.1911 18.1881V14.1881ZM13.8756 14.3665C14.0931 14.4903 14.2734 14.6702 14.3978 14.8872L10.9278 16.877C11.1585 17.2792 11.4926 17.6124 11.8954 17.8419L13.8756 14.3665ZM14.3978 14.8872C14.5223 15.1043 14.5864 15.3508 14.5835 15.601L10.5838 15.5545C10.5784 16.0181 10.6972 16.4747 10.9278 16.877L14.3978 14.8872ZM14.5837 15.5777V9.42357H10.5837V15.5777H14.5837ZM14.5836 9.41002C14.5853 9.65908 14.5206 9.9041 14.3962 10.1199L10.931 8.12182C10.7004 8.52163 10.5806 8.97563 10.5837 9.43711L14.5836 9.41002ZM14.3962 10.1199C14.2718 10.3356 14.0921 10.5144 13.8757 10.6377L11.8953 7.16235C11.4944 7.39084 11.1615 7.72202 10.931 8.12182L14.3962 10.1199ZM13.9305 10.6053C13.7078 10.7418 13.4516 10.8141 13.1903 10.8141V6.81407C12.7139 6.81407 12.2467 6.94582 11.8405 7.19475L13.9305 10.6053ZM13.1903 10.8141C12.9291 10.8141 12.6729 10.7418 12.4501 10.6053L14.5401 7.19475C14.1339 6.94582 13.6668 6.81407 13.1903 6.81407V10.8141ZM12.4966 10.6329L17.8443 13.7144L19.8414 10.2486L14.4936 7.16713L12.4966 10.6329ZM17.8593 13.7229C17.643 13.6008 17.4631 13.4234 17.3379 13.2089L20.7925 11.1925C20.5605 10.795 20.2271 10.4663 19.8263 10.24L17.8593 13.7229ZM17.3379 13.2089C17.2127 12.9944 17.1467 12.7505 17.1467 12.5021H21.1467C21.1467 12.0419 21.0245 11.59 20.7925 11.1925L17.3379 13.2089ZM17.1467 12.5021C17.1467 12.2537 17.2127 12.0098 17.3379 11.7953L20.7925 13.8117C21.0245 13.4143 21.1467 12.9623 21.1467 12.5021H17.1467ZM17.3379 11.7953C17.4631 11.5808 17.643 11.4034 17.8593 11.2813L19.8263 14.7642C20.2271 14.5379 20.5605 14.2092 20.7925 13.8117L17.3379 11.7953ZM25.7087 -1.16602H5.29199V2.83398H25.7087V-1.16602ZM5.28999 -1.16601C3.60029 -1.16433 1.98027 -0.492347 0.785466 0.702458L3.61389 3.53088C4.05953 3.08525 4.66376 2.83461 5.29399 2.83398L5.28999 -1.16601ZM0.785466 0.702458C-0.409338 1.89726 -1.08132 3.51728 -1.08301 5.20699L2.91699 5.21098C2.91762 4.58076 3.16826 3.97652 3.61389 3.53088L0.785466 0.702458ZM-1.08301 5.20898V19.7923H2.91699V5.20898H-1.08301ZM-1.08301 19.7943C-1.08132 21.484 -0.409338 23.104 0.785466 24.2988L3.61389 21.4704C3.16826 21.0248 2.91762 20.4205 2.91699 19.7903L-1.08301 19.7943ZM0.785466 24.2988C1.98027 25.4936 3.60029 26.1656 5.28999 26.1673L5.29399 22.1673C4.66376 22.1667 4.05953 21.9161 3.61389 21.4704L0.785466 24.2988ZM5.29199 26.1673H25.7087V22.1673H5.29199V26.1673ZM25.7107 26.1673C27.4004 26.1656 29.0204 25.4937 30.2152 24.2988L27.3868 21.4704C26.9411 21.9161 26.3369 22.1667 25.7067 22.1673L25.7107 26.1673ZM30.2152 24.2988C31.41 23.104 32.082 21.484 32.0837 19.7943L28.0837 19.7903C28.083 20.4205 27.8324 21.0248 27.3868 21.4704L30.2152 24.2988ZM32.0837 19.7923V5.20898H28.0837V19.7923H32.0837ZM32.0837 5.20699C32.082 3.51728 31.41 1.89726 30.2152 0.702458L27.3868 3.53088C27.8324 3.97652 28.083 4.58075 28.0837 5.21098L32.0837 5.20699ZM30.2152 0.702458C29.0204 -0.492347 27.4004 -1.16433 25.7107 -1.16601L25.7067 2.83398C26.3369 2.83461 26.9411 3.08525 27.3868 3.53088L30.2152 0.702458ZM26.6253 19.7893C26.625 20.0331 26.528 20.2668 26.3556 20.4392L29.184 23.2676C30.1051 22.3466 30.6234 21.0979 30.6253 19.7953L26.6253 19.7893ZM26.3556 20.4392C26.1832 20.6116 25.9495 20.7086 25.7057 20.709L25.7117 24.709C27.0142 24.707 28.2629 24.1887 29.184 23.2676L26.3556 20.4392ZM25.7087 20.709H5.29199V24.709H25.7087V20.709ZM5.29499 20.709C5.05119 20.7086 4.81748 20.6116 4.64509 20.4392L1.81666 23.2676C2.73773 24.1887 3.98641 24.707 5.289 24.709L5.29499 20.709ZM4.64509 20.4392C4.4727 20.2668 4.37569 20.0331 4.37532 19.7893L0.375328 19.7953C0.377277 21.0979 0.895591 22.3466 1.81666 23.2676L4.64509 20.4392ZM4.37533 19.7923V5.20898H0.375325V19.7923H4.37533ZM4.37532 5.21198C4.37569 4.96818 4.4727 4.73447 4.64509 4.56208L1.81666 1.73365C0.895592 2.65472 0.377277 3.9034 0.375328 5.20599L4.37532 5.21198ZM4.64509 4.56208C4.81748 4.38969 5.05119 4.29268 5.29499 4.29232L5.289 0.29232C3.98641 0.29427 2.73773 0.812584 1.81666 1.73365L4.64509 4.56208ZM5.29199 4.29232H25.7087V0.292318H5.29199V4.29232ZM25.7057 4.29232C25.9495 4.29268 26.1832 4.38969 26.3556 4.56208L29.184 1.73365C28.2629 0.812584 27.0142 0.29427 25.7117 0.29232L25.7057 4.29232ZM26.3556 4.56208C26.528 4.73447 26.625 4.96818 26.6253 5.21198L30.6253 5.20599C30.6234 3.9034 30.1051 2.65473 29.184 1.73365L26.3556 4.56208ZM26.6253 5.20898V19.7923H30.6253V5.20898H26.6253Z" fill="#494949" mask="url(#path-1-inside-1_988_2356)"/>
</svg>
