<svg width="10" height="17" viewBox="0 0 10 17" fill="none" xmlns="http://www.w3.org/2000/svg">
<path d="M2 0.5C2.53043 0.5 3.03914 0.710714 3.41421 1.08579C3.78929 1.46086 4 1.96957 4 2.5C4 3.03043 3.78929 3.53914 3.41421 3.91421C3.03914 4.28929 2.53043 4.5 2 4.5C1.46957 4.5 0.960859 4.28929 0.585786 3.91421C0.210714 3.53914 0 3.03043 0 2.5C0 1.96957 0.210714 1.46086 0.585786 1.08579C0.960859 0.710714 1.46957 0.5 2 0.5ZM4 8.5C4 7.96957 3.78929 7.46086 3.41421 7.08579C3.03914 6.71071 2.53043 6.5 2 6.5C1.46957 6.5 0.960859 6.71071 0.585786 7.08579C0.210714 7.46086 0 7.96957 0 8.5C0 9.03043 0.210714 9.53914 0.585786 9.91421C0.960859 10.2893 1.46957 10.5 2 10.5C2.53043 10.5 3.03914 10.2893 3.41421 9.91421C3.78929 9.53914 4 9.03043 4 8.5ZM4 14.5C4 13.9696 3.78929 13.4609 3.41421 13.0858C3.03914 12.7107 2.53043 12.5 2 12.5C1.46957 12.5 0.960859 12.7107 0.585786 13.0858C0.210714 13.4609 0 13.9696 0 14.5C0 15.0304 0.210714 15.5391 0.585786 15.9142C0.960859 16.2893 1.46957 16.5 2 16.5C2.53043 16.5 3.03914 16.2893 3.41421 15.9142C3.78929 15.5391 4 15.0304 4 14.5ZM10 8.5C10 7.96957 9.78929 7.46086 9.41421 7.08579C9.03914 6.71071 8.53043 6.5 8 6.5C7.46957 6.5 6.96086 6.71071 6.58579 7.08579C6.21071 7.46086 6 7.96957 6 8.5C6 9.03043 6.21071 9.53914 6.58579 9.91421C6.96086 10.2893 7.46957 10.5 8 10.5C8.53043 10.5 9.03914 10.2893 9.41421 9.91421C9.78929 9.53914 10 9.03043 10 8.5ZM8 12.5C8.53043 12.5 9.03914 12.7107 9.41421 13.0858C9.78929 13.4609 10 13.9696 10 14.5C10 15.0304 9.78929 15.5391 9.41421 15.9142C9.03914 16.2893 8.53043 16.5 8 16.5C7.46957 16.5 6.96086 16.2893 6.58579 15.9142C6.21071 15.5391 6 15.0304 6 14.5C6 13.9696 6.21071 13.4609 6.58579 13.0858C6.96086 12.7107 7.46957 12.5 8 12.5ZM10 2.5C10 1.96957 9.78929 1.46086 9.41421 1.08579C9.03914 0.710714 8.53043 0.5 8 0.5C7.46957 0.5 6.96086 0.710714 6.58579 1.08579C6.21071 1.46086 6 1.96957 6 2.5C6 3.03043 6.21071 3.53914 6.58579 3.91421C6.96086 4.28929 7.46957 4.5 8 4.5C8.53043 4.5 9.03914 4.28929 9.41421 3.91421C9.78929 3.53914 10 3.03043 10 2.5Z" fill="#494949"/>
</svg>
