<svg width="53" height="53" viewBox="0 0 53 53" fill="none" xmlns="http://www.w3.org/2000/svg">
<path d="M30.5808 9.40687C32.939 8.72315 35.4447 9.85287 36.4938 12.0728L37.4189 14.0304C37.8684 14.9817 38.6066 15.7669 39.5283 16.2743L41.4251 17.3184C43.5761 18.5024 44.5491 21.0731 43.7211 23.3846L42.991 25.423C42.6363 26.4135 42.603 27.4907 42.896 28.5013L43.4989 30.5808C44.1826 32.939 43.0529 35.4447 40.833 36.4938L38.8754 37.4189C37.9241 37.8684 37.1389 38.6066 36.6315 39.5283L35.5874 41.4251C34.4033 43.5761 31.8327 44.5491 29.5212 43.7211L27.4828 42.991C26.4923 42.6363 25.4151 42.603 24.4045 42.896L22.325 43.4989C19.9668 44.1826 17.4611 43.0529 16.412 40.833L15.4869 38.8754C15.0374 37.9241 14.2992 37.1389 13.3774 36.6315L11.4807 35.5874C9.3297 34.4033 8.35673 31.8327 9.18466 29.5212L9.91474 27.4828C10.2695 26.4923 10.3028 25.4151 10.0098 24.4045L9.40688 22.325C8.72315 19.9668 9.85287 17.4611 12.0728 16.412L14.0304 15.4869C14.9817 15.0374 15.7669 14.2992 16.2743 13.3774L17.3184 11.4807C18.5024 9.32969 21.0731 8.35673 23.3846 9.18465L25.423 9.91474C26.4135 10.2695 27.4907 10.3028 28.5013 10.0098L30.5808 9.40687Z" fill="#00ADEF"/>
<g clip-path="url(#clip0_341_6631)">
<path d="M23.4529 26.4531L25.4529 28.4531L29.9529 23.9531M32.3541 19.4516C32.56 19.9497 32.9553 20.3455 33.453 20.5522L35.1981 21.2751C35.6962 21.4814 36.0919 21.8771 36.2982 22.3752C36.5045 22.8732 36.5045 23.4329 36.2982 23.9309L35.5758 25.6749C35.3694 26.1732 35.3691 26.7334 35.5765 27.2314L36.2976 28.9749C36.3998 29.2216 36.4525 29.486 36.4525 29.753C36.4526 30.0201 36.4 30.2845 36.2978 30.5312C36.1956 30.778 36.0458 31.0021 35.857 31.1909C35.6681 31.3797 35.4439 31.5295 35.1972 31.6316L33.4533 32.354C32.9552 32.5599 32.5594 32.9552 32.3527 33.4529L31.6298 35.1981C31.4235 35.6962 31.0279 36.0919 30.5298 36.2982C30.0318 36.5045 29.4722 36.5045 28.9741 36.2982L27.2302 35.5758C26.7321 35.37 26.1727 35.3704 25.675 35.577L23.9298 36.2989C23.432 36.5047 22.8729 36.5045 22.3753 36.2984C21.8776 36.0922 21.4821 35.697 21.2757 35.1995L20.5526 33.4537C20.3467 32.9557 19.9514 32.5598 19.4537 32.3531L17.7085 31.6302C17.2107 31.424 16.8151 31.0285 16.6088 30.5308C16.4024 30.033 16.4021 29.4736 16.608 28.9756L17.3303 27.2317C17.5361 26.7336 17.5357 26.1742 17.3292 25.6764L16.6079 23.9299C16.5056 23.6832 16.4529 23.4188 16.4529 23.1518C16.4528 22.8847 16.5054 22.6203 16.6076 22.3736C16.7098 22.1268 16.8596 21.9027 17.0485 21.7139C17.2373 21.5251 17.4615 21.3753 17.7083 21.2732L19.4522 20.5508C19.9498 20.3451 20.3454 19.9503 20.5522 19.4532L21.2751 17.7079C21.4814 17.2099 21.8771 16.8142 22.3751 16.6079C22.8732 16.4015 23.4328 16.4015 23.9308 16.6079L25.6747 17.3302C26.1728 17.536 26.7322 17.5356 27.23 17.3291L28.9759 16.609C29.4739 16.4028 30.0333 16.4028 30.5313 16.6091C31.0292 16.8154 31.4249 17.211 31.6312 17.7089L32.3543 19.4547L32.3541 19.4516Z" stroke="white" stroke-width="2" stroke-linecap="round" stroke-linejoin="round"/>
</g>
<defs>
<clipPath id="clip0_341_6631">
<rect x="15.4529" y="15.4531" width="22" height="22" rx="5" fill="white"/>
</clipPath>
</defs>
</svg>
